<svg id="Layer_35" enable-background="new 0 0 64 64" height="512" viewBox="0 0 64 64" width="512" xmlns="http://www.w3.org/2000/svg" xmlns:xlink="http://www.w3.org/1999/xlink"><linearGradient id="SVGID_1_" gradientUnits="userSpaceOnUse" x1="32" x2="32" y1="63" y2="1"><stop offset="0" stop-color="#9f2fff"/><stop offset="1" stop-color="#0bb1d3"/></linearGradient><path d="m60 39h-10v-33c0-2.757-2.243-5-5-5h-26c-2.757 0-5 2.243-5 5v33h-10c-1.654 0-3 1.346-3 3v14c0 1.654 1.346 3 3 3h6v2h-4v2h18v-2h-4v-2h6c1.654 0 3-1.346 3-3v-13h6v13c0 1.654 1.346 3 3 3h6v2h-4v2h18v-2h-4v-2h6c1.654 0 3-1.346 3-3v-14c0-1.654-1.346-3-3-3zm1 3v11h-24v-11c0-.551.448-1 1-1h22c.552 0 1 .449 1 1zm-35-3h-6v-8h24v8h-6c-1.302 0-2.402.839-2.816 2h-6.369c-.413-1.161-1.513-2-2.815-2zm18-26h-24v-6h24zm-24 2h24v6h-24zm0 8h24v6h-24zm-4-17c0-1.654 1.346-3 3-3h26c1.654 0 3 1.346 3 3v33h-2v-32c0-1.103-.897-2-2-2h-24c-1.103 0-2 .897-2 2v32h-2zm-12 35h22c.552 0 1 .449 1 1v11h-24v-11c0-.551.448-1 1-1zm14 20h-6v-2h6zm8-4h-22c-.552 0-1-.449-1-1v-1h24v1c0 .551-.448 1-1 1zm26 4h-6v-2h6zm8-4h-22c-.552 0-1-.449-1-1v-1h24v1c0 .551-.448 1-1 1zm-36-46h-2v-2h2zm4 0h-2v-2h2zm4 0h-2v-2h2zm10 6v2h-2v-2zm-6 0h2v2h-2zm-4 0h2v2h-2zm-10 8h2v2h-2zm4 0h2v2h-2zm6 0v2h-2v-2zm0 8c-1.654 0-3 1.346-3 3s1.346 3 3 3 3-1.346 3-3-1.346-3-3-3zm0 4c-.552 0-1-.449-1-1s.448-1 1-1 1 .449 1 1-.448 1-1 1zm29-5.816v-21.184h-2v21.184c-1.161.414-2 1.514-2 2.816 0 1.654 1.346 3 3 3s3-1.346 3-3c0-1.302-.839-2.402-2-2.816zm-1 3.816c-.552 0-1-.449-1-1s.448-1 1-1 1 .449 1 1-.448 1-1 1zm-4 2v-21.184c1.161-.414 2-1.514 2-2.816 0-1.654-1.346-3-3-3s-3 1.346-3 3c0 1.302.839 2.402 2 2.816v21.184zm-1-25c.552 0 1 .449 1 1s-.448 1-1 1-1-.449-1-1 .448-1 1-1zm-51-2c-1.654 0-3 1.346-3 3 0 1.302.839 2.402 2 2.816v21.184h2v-21.184c1.161-.414 2-1.514 2-2.816 0-1.654-1.346-3-3-3zm0 4c-.552 0-1-.449-1-1s.448-1 1-1 1 .449 1 1-.448 1-1 1zm4-4v21.184c-1.161.414-2 1.514-2 2.816 0 1.654 1.346 3 3 3s3-1.346 3-3c0-1.302-.839-2.402-2-2.816v-21.184zm1 25c-.552 0-1-.449-1-1s.448-1 1-1 1 .449 1 1-.448 1-1 1zm32 10h-2v-2h2zm4 0h-2v-2h2zm4 0h-2v-2h2zm-24 6h-2v-2h2zm-4 0h-2v-2h2zm-4 0h-2v-2h2z" fill="url(#SVGID_1_)"/></svg>