<svg height="499pt" viewBox="0 -1 499.008 499" width="499pt" xmlns="http://www.w3.org/2000/svg" xmlns:xlink="http://www.w3.org/1999/xlink"><linearGradient id="linear0" gradientUnits="userSpaceOnUse" x1="249.504" x2="249.504" y1="496.004" y2=".004"><stop offset="0" stop-color="#9f2fff"/><stop offset="1" stop-color="#0bb1d3"/></linearGradient><path d="m317.953125 323.605469 13.359375 8.796875-10.542969 16-13.363281-8.796875zm68.542969-104-63.273438 96 13.363282 8.796875 63.269531-96zm-312.734375-58.800781-13.363281 8.816406 8.808593 13.359375 13.359375-8.816407zm17.605469 26.71875-13.359376 8.808593 8.808594 13.359375 13.359375-8.808594zm17.609374 26.710937-13.359374 8.816406 8.808593 13.359375 13.359375-8.8125zm304.960938-214.23046875 85.070312 136.12109375-237.191406 359.878906h-24.617187l-111.015625-168.425781c-2.902344 4.816406-4.679688 10.402344-4.679688 16.425781h-16c0-17.648437-14.351562-32-32-32v-16c9.785156 0 18.449219-4.503906 24.320313-11.457031l-97.824219-148.421875 85.070312-136.12109375zm-165.90625 479.99999975h2.945312l68.726563-336h-140.398437zm81.472656-359.105468 65.558594-104.894532h-131.117188zm-80-97.789063-65.558594 104.894531h131.125zm-14.441406-7.105469h-131.117188l65.558594 104.894532zm-145.558594 7.097656-65.566406 104.902344h131.132812zm184.152344 425.863282 200.992188-304.960938h-138.617188zm201.414062-320.960938-65.566406-104.902344-65.558594 104.902344zm-369.839843 138.695313c.082031-.894531.273437-1.773438.273437-2.695313h16c0 17.648438 14.351563 32 32 32v16c-5.695312 0-10.984375 1.625-15.625 4.238282l87.472656 132.722656-62.375-304.960938h-138.617187zm8.273437 50.824219c3.558594-5.359376 8.167969-9.960938 13.519532-13.519532-5.359376-3.558594-9.96875-8.167968-13.519532-13.519531-3.558594 5.359375-8.167968 9.960937-13.519531 13.519531 5.351563 3.558594 9.960937 8.167969 13.519531 13.519532zm168.265625-67.917969 3.207031-15.671875-15.671874-3.203125-3.207032 15.671875zm16.03125-78.378907-15.671875-3.199218-3.207031 15.671875 15.671875 3.199219zm-6.417969 31.351563-15.679687-3.199219-3.199219 15.671875 15.679688 3.203125zm-83.222656-166.132813-13.3125-8.875-8.871094 13.3125 13.3125 8.875zm-26.625 39.933594 8.871094-13.3125-13.308594-8.871094-8.875 13.3125zm207.066406 4.5625 13.308594 8.871094 8.875-13.3125-13.3125-8.871094zm-17.753906 26.621094 13.3125 8.875 8.871094-13.3125-13.3125-8.871094zm14.65625 332.441406c0-17.648437-14.351562-32-32-32v-16c17.648438 0 32-14.351562 32-32h16c0 17.648438 14.351563 32 32 32v16c-17.648437 0-32 14.351563-32 32zm8-26.480468c3.558594-5.359376 8.167969-9.960938 13.519532-13.519532-5.359376-3.558594-9.96875-8.167968-13.519532-13.519531-3.558594 5.359375-8.167968 9.960937-13.519531 13.519531 5.351563 3.558594 9.960937 8.167969 13.519531 13.519532zm-360 82.480468c0-17.648437-14.351562-32-32-32v-16c17.648438 0 32-14.351562 32-32h16c0 17.648438 14.351563 32 32 32v16c-17.648437 0-32 14.351563-32 32zm8-26.480468c3.558594-5.359376 8.167969-9.960938 13.519532-13.519532-5.359376-3.558594-9.96875-8.167968-13.519532-13.519531-3.558594 5.359375-8.167968 9.960937-13.519531 13.519531 5.351563 3.558594 9.960937 8.167969 13.519531 13.519532zm456-189.519532v16c-17.648437 0-32 14.351563-32 32h-16c0-17.648437-14.351562-32-32-32v-16c17.648438 0 32-14.351562 32-32h16c0 17.648438 14.351563 32 32 32zm-26.480468 8c-5.359376-3.558594-9.96875-8.167968-13.519532-13.519531-3.558594 5.359375-8.167968 9.960937-13.519531 13.519531 5.359375 3.558594 9.96875 8.167969 13.519531 13.519532 3.558594-5.351563 8.167969-9.960938 13.519532-13.519532zm0 0" fill="url(#linear0)"/></svg>