<svg height="496pt" viewBox="0 0 496 496" width="496pt" xmlns="http://www.w3.org/2000/svg"><path d="m296 40v32h-288v-32c0-17.679688 14.320312-32 32-32h224c17.679688 0 32 14.320312 32 32zm0 0" fill="#969faa"/><path d="m296 416v40c0 17.679688-14.320312 32-32 32h-224c-17.679688 0-32-14.320312-32-32v-40zm0 0" fill="#969faa"/><path d="m8 72h288v344h-288zm0 0" fill="#69d6f4"/><path d="m296 144h176c8.800781 0 16 7.199219 16 16v128c0 8.800781-7.199219 16-16 16h-52.398438l-67.601562 56v-56h-72c-8.800781 0-16-7.199219-16-16v-128c0-8.800781 7.199219-16 16-16zm0 0" fill="#fcd770"/><path d="m176 336h-80v-46.878906c-14.800781-14.5625-24-34.722656-24-57.121094 0-44.160156 35.839844-80 80-80s80 35.839844 80 80c0 22.398438-9.199219 42.558594-24 57.121094v46.878906zm0 0" fill="#e6e9ed"/><path d="m198.71875 217.199219c3.042969 9.039062.640625 19.039062-6.078125 25.839843-3.199219 3.199219-7.519531 4.960938-12 4.960938-4.71875 0-8.960937-1.921875-12.082031-4.960938-3.039063-3.039062-4.957032-7.359374-4.957032-12v-7.039062l32-16zm0 0" fill="#ef7385"/><path d="m136 224v7.039062c0 4.640626-1.921875 8.960938-4.960938 12-3.039062 3.039063-7.359374 4.960938-12 4.960938-4.480468 0-8.800781-1.761719-12-4.960938-6.800781-6.800781-9.117187-16.800781-6.078124-25.839843l3.039062-9.199219zm0 0" fill="#ef7385"/><path d="m112 440h80v16h-80zm0 0"/><path d="m472 136h-168v-96c0-22.054688-17.945312-40-40-40h-224c-22.054688 0-40 17.945312-40 40v416c0 22.054688 17.945312 40 40 40h224c22.054688 0 40-17.945312 40-40v-144h40v65.007812l78.519531-65.007812h49.480469c13.230469 0 24-10.769531 24-24v-128c0-13.230469-10.769531-24-24-24zm-432-120h224c13.230469 0 24 10.769531 24 24v24h-272v-24c0-13.230469 10.769531-24 24-24zm224 464h-224c-13.230469 0-24-10.769531-24-24v-32h272v32c0 13.230469-10.769531 24-24 24zm24-72h-272v-328h272v56h-8c-13.230469 0-24 10.769531-24 24v128c0 13.230469 10.769531 24 24 24h8zm192-120c0 4.414062-3.59375 8-8 8h-55.246094l-56.753906 46.992188v-46.992188h-80c-4.40625 0-8-3.585938-8-8v-128c0-4.40625 3.59375-8 8-8h192c4.40625 0 8 3.59375 8 8zm0 0"/><path d="m152 144c-48.519531 0-88 39.480469-88 88 0 22.65625 8.496094 43.953125 24 60.351562v51.648438h128v-51.648438c15.503906-16.398437 24-37.695312 24-60.351562 0-48.519531-39.480469-88-88-88zm50.398438 139.375-2.398438 2.351562v42.273438h-16v-40h-16v40h-32v-40h-16v40h-16v-42.273438l-2.398438-2.351562c-13.929687-13.664062-21.601562-31.910156-21.601562-51.375 0-39.695312 32.304688-72 72-72s72 32.304688 72 72c0 19.464844-7.671875 37.710938-21.601562 51.375zm0 0"/><path d="m93.34375 214.671875c-4.007812 12.015625-.929688 25.054687 8.03125 34.015625 4.714844 4.710938 10.984375 7.3125 17.65625 7.3125 13.769531 0 24.96875-11.199219 24.96875-24.96875v-11.976562l-44.671875-22.335938zm15.175781 5.054687.152344-.445312 19.328125 9.664062v2.085938c0 4.945312-4.023438 8.96875-8.96875 8.96875-2.398438 0-4.648438-.9375-6.34375-2.625-4.648438-4.648438-6.238281-11.40625-4.167969-17.648438zm0 0"/><path d="m155.640625 219.054688v11.976562c0 13.769531 11.199219 24.96875 24.96875 24.96875 6.671875 0 12.941406-2.601562 17.65625-7.3125 8.957031-8.960938 12.039063-22 8.03125-34.007812l-5.984375-17.960938zm31.3125 18.320312c-1.695313 1.6875-3.953125 2.625-6.34375 2.625-4.945313 0-8.96875-4.023438-8.96875-8.96875v-2.085938l19.328125-9.664062.152344.453125c2.070312 6.234375.480468 12.992187-4.167969 17.640625zm0 0"/><path d="m384 176.40625v-8.40625h-16v8.40625c-13.535156 1.960938-24 13.53125-24 27.59375 0 15.441406 12.558594 28 28 28h8c6.617188 0 12 5.382812 12 12s-5.382812 12-12 12h-8c-6.617188 0-12-5.382812-12-12v-4h-16v4c0 14.0625 10.464844 25.632812 24 27.59375v8.40625h16v-8.40625c13.535156-1.960938 24-13.53125 24-27.59375 0-15.441406-12.558594-28-28-28h-8c-6.617188 0-12-5.382812-12-12s5.382812-12 12-12h8c6.617188 0 12 5.382812 12 12v4h16v-4c0-14.0625-10.464844-25.632812-24-27.59375zm0 0"/><path d="m320 32h144v16h-144zm0 0"/><path d="m480 32h16v16h-16zm0 0"/><path d="m320 96h144v16h-144zm0 0"/><path d="m480 96h16v16h-16zm0 0"/><path d="m352 64h144v16h-144zm0 0"/><path d="m320 64h16v16h-16zm0 0"/><path d="m320 392h144v16h-144zm0 0"/><path d="m480 392h16v16h-16zm0 0"/><path d="m320 456h144v16h-144zm0 0"/><path d="m480 456h16v16h-16zm0 0"/><path d="m352 424h144v16h-144zm0 0"/><path d="m320 424h16v16h-16zm0 0"/></svg>